<svg  width="1rem" height="1rem" xmlns="http://www.w3.org/2000/svg" name="zi_usercircle" viewBox="0 0 2000 2000"><path d="M900 199q-243 0-450 121.5T121.5 649Q0 856 0 1099t121.5 450Q243 1756 450 1877.5T900 1999q243 0 450-121.5t328.5-328.5q121.5-207 121.5-450t-121.5-450Q1557 442 1350 320.5T900 199zm0 348q131 0 225 94.5t94 225q0 130.5-94 225T900 1186q-131 0-225-94.5t-94-225q0-130.5 94-225T900 547zm0 1249q-156 0-295.5-65.5T367 1549q54-98 148.5-158t210.5-60q11 0 25 4 76 25 149 25t149-25q14-4 25-4 116 0 210.5 60t148.5 158q-98 116-237.5 181.5T900 1796z"/></svg>